G04 DipTrace 4.3.0.5*
G04 AtesBottom.gbr*
%MOIN*%
G04 #@! TF.FileFunction,Copper,L2,Bot*
G04 #@! TF.Part,Single*
G04 #@! TA.AperFunction,Conductor*
%ADD13C,0.02*%
G04 #@! TA.AperFunction,ComponentPad*
%ADD14C,0.09*%
%ADD15R,0.07X0.07*%
%ADD16C,0.07*%
%ADD17C,0.06*%
%ADD18R,0.050699X0.09*%
%ADD19O,0.050394X0.09*%
%ADD20R,0.1X0.1*%
%ADD21C,0.1*%
%ADD22R,0.077953X0.077953*%
%ADD23C,0.077953*%
%ADD24R,0.12X0.08*%
%ADD25O,0.13X0.08*%
%FSLAX26Y26*%
G04*
G70*
G90*
G75*
G01*
G04 Bottom*
%LPD*%
X93799Y175012D2*
G54D13*
X337488D1*
X487500Y25000D1*
X737500D1*
Y262500D1*
X562500Y437500D1*
Y612500D1*
X575000Y625000D1*
X725000D1*
X737500Y612500D1*
Y500000D1*
X1112500Y125000D1*
Y-375000D1*
X1275000Y-537500D1*
X1375000D1*
X1424996Y-487504D1*
X1481201D1*
X510000Y-712500D2*
X390000D1*
X387500D1*
X350000Y-675000D1*
X200000D1*
X137500Y-612500D1*
X-37500D1*
Y-737499D1*
X-37501Y-737500D1*
X-37500Y-612500D2*
Y-450000D1*
X-87500Y-400000D1*
Y-325000D1*
X-112500Y-300000D1*
Y12500D1*
X50012Y175012D1*
X93799D1*
X-37497Y-837500D2*
X-12500D1*
X12500Y-812500D1*
X162500D1*
X212500Y-862500D1*
Y-912500D1*
X-37497Y-837500D2*
X-87387D1*
X-525000D1*
X-537500Y-825000D1*
Y-150000D1*
X-562500Y-125000D1*
X-875000D1*
Y-787500D1*
X-412500Y-1250000D1*
X1325000D1*
Y-902500D1*
X1322500Y-900000D1*
X1412500D1*
Y-910006D1*
X1440000Y-937506D1*
X387500Y875000D2*
X600000D1*
Y862500D1*
X1024995Y437505D1*
Y335000D1*
Y347495D1*
X1127500Y450000D1*
X1247500D1*
X-402500Y425009D2*
Y397500D1*
X-462500Y337500D1*
Y237500D1*
X-399988Y174988D1*
X-218799D1*
X-262512D1*
X-337500Y100000D1*
Y-137500D1*
X-200000Y-275000D1*
Y-350000D1*
X-137500Y-412500D1*
Y-787387D1*
X-87387Y-837500D1*
X1440000Y-937506D2*
X1524994D1*
X1650000Y-812500D1*
Y-500000D1*
X1657629Y-492371D1*
X1662504Y-487496D1*
X1793799D1*
X1657629Y-492371D2*
Y-79871D1*
X1240257Y337500D1*
X1027495D1*
X1024995Y335000D1*
X-787496Y-260000D2*
X-612500D1*
Y-925000D1*
X-600000Y-937500D1*
X-37493D1*
X-25000D1*
X0Y-912500D1*
X142500D1*
Y-1042500D1*
X150008Y-1050008D1*
X677500D1*
Y-1110000D1*
X705000Y-1137500D1*
X1177491D1*
X1177500Y-1137509D1*
Y-922500D1*
X1310000Y-790000D1*
Y-712495D1*
X282500Y-912500D2*
Y-830000D1*
X175000Y-722500D1*
X100004D1*
X249988Y-140000D2*
X222500D1*
X212500Y-150000D1*
Y-312500D1*
X109996D1*
X99996Y-302500D1*
X90000D1*
X0Y-212500D1*
Y-50000D1*
X25012Y-24988D1*
X93815D1*
X1597500Y-1137491D2*
Y-1015000D1*
X1675006Y-937494D1*
X1860000D1*
Y-915000D1*
X1962500Y-812500D1*
Y-175000D1*
X1812500Y-25000D1*
Y9995D1*
X1474995Y347500D1*
Y987500D1*
X-387500D1*
X-662500Y712500D1*
X-825000D1*
X-912500Y625000D1*
Y62500D1*
X-525000D1*
X-425000Y-37500D1*
Y-347512D1*
X-422500Y-350012D1*
X628000Y-273900D2*
X372000D1*
Y-278000D1*
X275000Y-375000D1*
Y-535012D1*
X250012Y-560000D1*
X372000Y-273900D2*
Y-138007D1*
X387507Y-122500D1*
X372000Y-273900D2*
X361400D1*
X325000Y-237500D1*
Y15007D1*
X250007Y90000D1*
X93822Y-124988D2*
X125012D1*
X250007Y7D1*
Y90000D1*
X-2500Y-349988D2*
Y-297500D1*
X-62500Y-237500D1*
Y-12500D1*
X25012Y75012D1*
X93807D1*
X1275000Y12500D2*
X1281189D1*
X1481193Y-187504D1*
Y-78688D1*
X1475005Y-72500D1*
X1235000Y-299995D2*
X1468704D1*
X1481196Y-287504D1*
X1235000Y-299995D2*
Y-227500D1*
X1275000Y-187500D1*
X1322500Y-437500D2*
X1350000D1*
X1399996Y-387504D1*
X1481198D1*
X1097500Y-1049992D2*
Y-1002500D1*
X1100000Y-1000000D1*
Y-987500D1*
X1012500Y-900000D1*
Y-547500D1*
X902500Y-437500D1*
X912500D1*
X1025005Y-324995D1*
Y-85000D1*
X815000Y-300005D2*
X779095D1*
X628000Y-451100D1*
X372000D1*
X637500Y115000D2*
Y212500D1*
X475000Y375000D1*
X93796D1*
X93784Y375012D1*
X93791Y275012D2*
X324988D1*
X347476Y297500D1*
X387493D1*
Y250007D1*
X485000Y152500D1*
X487508D1*
X93776Y475012D2*
X162488D1*
X212500Y425000D1*
X325000D1*
X472500Y572500D1*
X487492D1*
Y722484D1*
X490000Y724992D1*
X-822500Y562491D2*
Y565000D1*
X-725005Y662495D1*
X-247500D1*
Y647500D1*
X-218822Y618822D1*
Y474988D1*
X-402500Y562509D2*
X-399991D1*
X-325000Y487518D1*
Y312500D1*
X-340005D1*
X-365000Y287505D1*
X-325000Y312500D2*
X-287488Y274988D1*
X-218807D1*
X249993Y510000D2*
Y562507D1*
X237500Y575000D1*
X25000D1*
X-175012Y374988D1*
X-218815D1*
X700000Y875000D2*
X760008D1*
X910000Y725008D1*
X287500Y875000D2*
Y775000D1*
X284995D1*
X172500Y662505D1*
X-822500Y424991D2*
X-812491D1*
X-785000Y397500D1*
Y287495D1*
Y162504D1*
X-787504Y160000D1*
X902500Y-900000D2*
Y-725005D1*
X890000Y-712505D1*
Y-547500D1*
X825000Y-482500D1*
Y-400000D1*
X900000Y-325000D1*
Y262500D1*
X637500Y525000D1*
Y535000D1*
G54D14*
X1275000Y12500D3*
Y-187500D3*
G54D15*
X600000Y875000D3*
G54D16*
X700000D3*
G54D15*
X387500D3*
G54D16*
X287500D3*
G54D17*
X510000Y-712500D3*
X390000D3*
X1247500Y450000D3*
X1127500D3*
G54D18*
X142500Y-912500D3*
G54D19*
X212500D3*
X282500D3*
G54D14*
X100004Y-722500D3*
X99996Y-302500D3*
X249988Y-140000D3*
X250012Y-560000D3*
X1177500Y-1137509D3*
X1597500Y-1137491D3*
X1440000Y-937506D3*
X1860000Y-937494D3*
X1474995Y347500D3*
X1475005Y-72500D3*
X1235000Y-299995D3*
X815000Y-300005D3*
X1024995Y335000D3*
X1025005Y-85000D3*
X1097500Y-1049992D3*
X677500Y-1050008D3*
X902500Y-437500D3*
X1322500D3*
X637500Y535000D3*
Y115000D3*
X250007Y90000D3*
X249993Y510000D3*
X387507Y-122500D3*
X387493Y297500D3*
X487492Y572500D3*
X487508Y152500D3*
X-365000Y287505D3*
X-785000Y287495D3*
X-822500Y562491D3*
X-402500Y562509D3*
X172500Y662505D3*
X-247500Y662495D3*
X910000Y725008D3*
X490000Y724992D3*
X-422500Y-350012D3*
X-2500Y-349988D3*
X-822500Y424991D3*
X-402500Y425009D3*
X-787496Y-260000D3*
X-787504Y160000D3*
X1310000Y-712495D3*
X890000Y-712505D3*
X902500Y-900000D3*
X1322500D3*
G54D20*
X372000Y-273900D3*
G54D21*
Y-451100D3*
X628000D3*
Y-273900D3*
G54D22*
X-37501Y-737500D3*
G54D23*
X-37497Y-837500D3*
X-37493Y-937500D3*
G54D24*
X93822Y-124988D3*
G54D25*
X93815Y-24988D3*
X93807Y75012D3*
X93799Y175012D3*
X93791Y275012D3*
X93784Y375012D3*
X93776Y475012D3*
X-218822Y474988D3*
X-218815Y374988D3*
X-218807Y274988D3*
X-218799Y174988D3*
X-218791Y74988D3*
X-218784Y-25012D3*
X-218776Y-125012D3*
G54D24*
X1481193Y-187504D3*
G54D25*
X1481196Y-287504D3*
X1481198Y-387504D3*
X1481201Y-487504D3*
X1481203Y-587504D3*
X1481206Y-687504D3*
X1481209Y-787504D3*
X1793807Y-787496D3*
X1793804Y-687496D3*
X1793802Y-587496D3*
X1793799Y-487496D3*
X1793797Y-387496D3*
X1793794Y-287496D3*
X1793791Y-187496D3*
M02*
