M48
INCH
T01C0.02
T02C0.025
T03C0.035
T04C0.04
T05C0.0433
T06C0.138
%
T01
X+005100Y-007125
X+003900Y-007125
X+011275Y+004500
X+012475Y+004500
T02
X+001425Y-009125
X+002125Y-009125
X+002825Y-009125
T03
X+012750Y+000125
X+012750Y-001875
X+012350Y-003000
X+013225Y-004375
X+014812Y-003875
X+014812Y-004875
X+014812Y-005875
X+014812Y-006875
X+014812Y-007875
X+014400Y-009375
X+013225Y-009000
X+013100Y-007125
X+010975Y-010500
X+011775Y-011375
X+009025Y-009000
X+008900Y-007125
X+009025Y-004375
X+008150Y-003000
X+010250Y-000850
X+010250Y+003350
X+009100Y+007250
X+007000Y+008750
X+006000Y+008750
X+004900Y+007250
X+004875Y+005725
X+006375Y+005350
X+003875Y+002975
X+004875Y+001525
X+006375Y+001150
X+003875Y-001225
X+002500Y-001400
X+000938Y-001250
X+000938Y-000250
X+000938Y+000750
X+000938Y+001750
X+000938Y+002750
X+000938Y+003750
X+000938Y+004750
X+002500Y+005100
X+001725Y+006625
X+002875Y+008750
X+003875Y+008750
X-002475Y+006625
X-004025Y+005625
X-004025Y+004250
X-003650Y+002875
X-002188Y+002750
X-002188Y+001750
X-002188Y+000750
X-002188Y-000250
X-002188Y-001250
X-004225Y-003500
X-007875Y-002600
X-007875Y+001600
X-007850Y+002875
X-008225Y+004250
X-008225Y+005625
X-002188Y+004750
X-002188Y+003750
X+002500Y+000900
X+001000Y-003025
X-000025Y-003500
X+002500Y-005600
X+001000Y-007225
X+006775Y-010500
X+015975Y-011375
X+018600Y-009375
X+017938Y-007875
X+017938Y-006875
X+017938Y-005875
X+017938Y-004875
X+017938Y-003875
X+017938Y-002875
X+017938Y-001875
X+014812Y-001875
X+014812Y-002875
X+014750Y-000725
X+014750Y+003475
T04
X+003720Y-002739
X-000375Y-007375
X-000375Y-008375
X-000375Y-009375
T05
X+003720Y-004511
X+006280Y-004511
X+006280Y-002739
T06
X-007500Y+008500
X-007500Y-011000
X+018000Y-011000
X+018000Y+008500
T00
M30
